{
  "source": "C:\\Users\\Peter\\Desktop\\stuff\\MIUN\\quantitative_research\\video_compression\\videos\\BVI-HD\\BVI-HD_CDVL_videos\\ORIG\\PaintingTilting_1920x1080_60fps.mp4",
  "output": "C:\\Users\\Peter\\Desktop\\stuff\\MIUN\\quantitative_research\\video_compression\\compressed_videos\\BVI-HD\\h264\\1\\PaintingTilting_1920x1080_60fps_h264.mp4",
  "codec": "h264",
  "ok": "Input #0, mov,mp4,m4a,3gp,3g2,mj2, from 'C:\\Users\\Peter\\Desktop\\stuff\\MIUN\\quantitative_research\\video_compression\\videos\\BVI-HD\\BVI-HD_CDVL_videos\\ORIG\\PaintingTilting_1920x1080_60fps.mp4':\n  Metadata:\n    major_brand     : isom\n    minor_version   : 512\n    compatible_brands: isomiso2avc1mp41\n    encoder         : Lavf54.28.101\n  Duration: 00:00:05.00, start: 0.000000, bitrate: 667707 kb/s\n  Stream #0:0[0x1](und): Video: h264 (High 4:4:4 Predictive) (avc1 / 0x31637661), yuv420p(progressive), 1920x1080, 667702 kb/s, 60 fps, 60 tbr, 60 tbn (default)\n    Metadata:\n      handler_name    : VideoHandler\n      vendor_id       : [0][0][0][0]\n[out#0/mp4 @ 00000255a6639cc0] Codec AVOption b:a (set bitrate (in bits/s)) has not been used for any stream. The most likely reason is either wrong type (e.g. a video option with no video streams) or that it is a private option of some decoder which was not actually used for any stream.\nStream mapping:\n  Stream #0:0 -> #0:0 (h264 (native) -> h264 (libx264))\nPress [q] to stop, [?] for help\n[libx264 @ 00000255a664bc80] using cpu capabilities: MMX2 SSE2Fast SSSE3 SSE4.2 AVX FMA3 BMI2 AVX2\n[libx264 @ 00000255a664bc80] profile High, level 5.0, 4:2:0, 8-bit\n[libx264 @ 00000255a664bc80] 264 - core 165 r3222 b35605a - H.264/MPEG-4 AVC codec - Copyleft 2003-2025 - http://www.videolan.org/x264.html - options: cabac=1 ref=5 deblock=1:0:0 analyse=0x3:0x113 me=hex subme=8 psy=1 psy_rd=1.00:0.00 mixed_ref=1 me_range=16 chroma_me=1 trellis=2 8x8dct=1 cqm=0 deadzone=21,11 fast_pskip=1 chroma_qp_offset=-2 threads=18 lookahead_threads=3 sliced_threads=0 nr=0 decimate=1 interlaced=0 bluray_compat=0 constrained_intra=0 bframes=3 b_pyramid=2 b_adapt=1 b_bias=0 direct=3 weightb=1 open_gop=0 weightp=2 keyint=250 keyint_min=25 scenecut=40 intra_refresh=0 rc_lookahead=50 rc=cbr mbtree=1 bitrate=1000 ratetol=1.0 qcomp=0.60 qpmin=0 qpmax=69 qpstep=4 vbv_maxrate=1000 vbv_bufsize=1000 nal_hrd=none filler=0 ip_ratio=1.40 aq=1:1.00\nOutput #0, mp4, to 'C:\\Users\\Peter\\Desktop\\stuff\\MIUN\\quantitative_research\\video_compression\\compressed_videos\\BVI-HD\\h264\\1\\PaintingTilting_1920x1080_60fps_h264.mp4':\n  Metadata:\n    major_brand     : isom\n    minor_version   : 512\n    compatible_brands: isomiso2avc1mp41\n    encoder         : Lavf62.3.100\n  Stream #0:0(und): Video: h264 (avc1 / 0x31637661), yuv420p(tv, progressive), 1920x1080, q=2-31, 1000 kb/s, 60 fps, 15360 tbn (default)\n    Metadata:\n      encoder         : Lavc62.11.100 libx264\n      handler_name    : VideoHandler\n      vendor_id       : [0][0][0][0]\n    Side data:\n      cpb: bitrate max/min/avg: 1000000/0/1000000 buffer size: 1000000 vbv_delay: N/A\nframe=    0 fps=0.0 q=0.0 size=       0KiB time=N/A bitrate=N/A speed=N/A elapsed=0:00:00.52    \nframe=    0 fps=0.0 q=0.0 size=       0KiB time=N/A bitrate=N/A speed=N/A elapsed=0:00:01.20    \nframe=    0 fps=0.0 q=0.0 size=       0KiB time=N/A bitrate=N/A speed=N/A elapsed=0:00:01.79    \nframe=    6 fps=2.6 q=56.0 size=       0KiB time=00:00:00.03 bitrate=  11.5kbits/s speed=0.0142x elapsed=0:00:02.34    \nframe=   40 fps= 14 q=52.0 size=       0KiB time=00:00:00.63 bitrate=   0.6kbits/s speed=0.216x elapsed=0:00:02.93    \nframe=   68 fps= 19 q=50.0 size=       0KiB time=00:00:01.06 bitrate=   0.4kbits/s speed=0.303x elapsed=0:00:03.52    \nframe=   95 fps= 23 q=49.0 size=       0KiB time=00:00:01.55 bitrate=   0.2kbits/s speed=0.38x elapsed=0:00:04.07    \nframe=  109 fps= 23 q=49.0 size=       0KiB time=00:00:01.78 bitrate=   0.2kbits/s speed=0.38x elapsed=0:00:04.69    \nframe=  135 fps= 26 q=48.0 size=       0KiB time=00:00:02.16 bitrate=   0.2kbits/s speed=0.412x elapsed=0:00:05.26    \nframe=  156 fps= 27 q=48.0 size=       0KiB time=00:00:02.53 bitrate=   0.2kbits/s speed=0.434x elapsed=0:00:05.83    \nframe=  181 fps= 28 q=48.0 size=     256KiB time=00:00:02.93 bitrate= 715.1kbits/s speed=0.46x elapsed=0:00:06.37    \nframe=  208 fps= 30 q=49.0 size=     256KiB time=00:00:03.43 bitrate= 610.9kbits/s speed=0.494x elapsed=0:00:06.95    \nframe=  233 fps= 31 q=49.0 size=     256KiB time=00:00:03.85 bitrate= 544.8kbits/s speed=0.51x elapsed=0:00:07.54    \nframe=  268 fps= 33 q=52.0 size=     256KiB time=00:00:04.30 bitrate= 487.8kbits/s speed=0.532x elapsed=0:00:08.08    \n[mp4 @ 00000255a664a600] Starting second pass: moving the moov atom to the beginning of the file\n[out#0/mp4 @ 00000255a6639cc0] video:450KiB audio:0KiB subtitle:0KiB other streams:0KiB global headers:0KiB muxing overhead: 0.967154%\nframe=  300 fps= 35 q=-1.0 Lsize=     454KiB time=00:00:04.96 bitrate= 749.1kbits/s speed=0.588x elapsed=0:00:08.45    \n[libx264 @ 00000255a664bc80] frame I:2     Avg QP:46.88  size: 67056\n[libx264 @ 00000255a664bc80] frame P:76    Avg QP:47.61  size:  3455\n[libx264 @ 00000255a664bc80] frame B:222   Avg QP:50.81  size:   285\n[libx264 @ 00000255a664bc80] consecutive B-frames:  1.3%  0.0%  0.0% 98.7%\n[libx264 @ 00000255a664bc80] mb I  I16..4:  4.0% 87.9%  8.2%\n[libx264 @ 00000255a664bc80] mb P  I16..4:  0.1%  0.3%  0.0%  P16..4:  9.3%  0.8% 10.3%  0.0%  0.0%    skip:79.1%\n[libx264 @ 00000255a664bc80] mb B  I16..4:  0.0%  0.0%  0.0%  B16..8:  3.7%  0.0%  0.0%  direct: 0.0%  skip:96.3%  L0:24.2% L1:75.7% BI: 0.1%\n[libx264 @ 00000255a664bc80] 8x8 transform intra:85.5% inter:91.9%\n[libx264 @ 00000255a664bc80] direct mvs  spatial:95.5% temporal:4.5%\n[libx264 @ 00000255a664bc80] coded y,uvDC,uvAC intra: 68.8% 73.9% 33.1% inter: 0.5% 1.0% 0.0%\n[libx264 @ 00000255a664bc80] i16 v,h,dc,p: 56% 17% 11% 16%\n[libx264 @ 00000255a664bc80] i8 v,h,dc,ddl,ddr,vr,hd,vl,hu: 10%  4%  7% 11% 13% 16% 11% 14% 13%\n[libx264 @ 00000255a664bc80] i4 v,h,dc,ddl,ddr,vr,hd,vl,hu:  9%  4%  4% 13% 14% 16% 12% 13% 15%\n[libx264 @ 00000255a664bc80] i8c dc,h,v,p: 60% 15% 17%  8%\n[libx264 @ 00000255a664bc80] Weighted P-Frames: Y:2.6% UV:0.0%\n[libx264 @ 00000255a664bc80] ref P L0: 96.1%  1.2%  1.8%  0.4%  0.5%  0.0%\n[libx264 @ 00000255a664bc80] ref B L0: 98.8%  1.0%  0.1%  0.1%\n[libx264 @ 00000255a664bc80] ref B L1: 99.7%  0.3%\n[libx264 @ 00000255a664bc80] kb/s:735.79\n",
  "seconds": 8.911112785339355,
  "probe_out": {}
}